<?xml version="1.0" encoding="UTF-8"?>
<svg id="_레이어_1" data-name="레이어_1" xmlns="http://www.w3.org/2000/svg" version="1.1" viewBox="0 0 471.8 126.8">
  <!-- Generator: Adobe Illustrator 30.2.1, SVG Export Plug-In . SVG Version: 2.1.1 Build 1)  -->
  <defs>
    <style>
      .st0 {
        fill: none;
      }

      .st1 {
        fill: #446daa;
      }

      .st2 {
        fill: #040000;
      }

      .st3 {
        fill: #eb6d6e;
      }

      .st4 {
        fill: #9d9794;
      }

      .st5 {
        fill: #43b9b0;
      }

      .st6 {
        fill: #7e66aa;
      }

      .st7 {
        fill: #f4cc1d;
      }
    </style>
  </defs>
  <rect class="st0" x="-14.8" y="-60.2" width="500" height="250"/>
  <g>
    <g>
      <g>
        <g>
          <path class="st2" d="M124.7,65c0-10.6,8.1-19,19-19s11,2.6,13.8,5.8c.7.9,1.1,1.9,1.1,2.7,0,2.2-1.6,3.7-3.9,3.7s-2.4-.8-3.4-1.6c-1.8-1.8-4.2-3.2-7.7-3.2-6.2,0-11,5.2-11,11.7s4.9,11.7,11,11.7,5.9-1.4,7.6-3.2c1-.9,1.9-1.8,3.4-1.8s3.9,1.6,3.9,3.8-.4,1.8-1.1,2.6c-2.7,3.3-7.7,5.9-13.8,5.9-10.9,0-19-8.4-19-19Z"/>
          <path class="st2" d="M160.8,65c0-10.6,8.1-19,19-19s19,8.4,19,19-8,19-19,19-19-8.4-19-19ZM190.8,65c0-6.5-4.7-11.7-11-11.7s-11,5.2-11,11.7,4.7,11.7,11,11.7,11-5.3,11-11.7Z"/>
          <path class="st2" d="M202.8,62.8c0-10.2,6.8-16.8,16.1-16.8s3.7,1.6,3.7,3.7-1.6,3.7-3.7,3.7c-4.7,0-8.2,3.2-8.2,9.5v17.1c0,2.2-1.7,4-3.9,4s-3.9-1.8-3.9-4v-17.1Z"/>
          <path class="st2" d="M221.8,65c0-10.6,8.1-19,19-19s10,2.2,12.4,4.4c.9.8,1.4,1.9,1.4,3s-.3,1.9-1.1,2.9l-11,13.1c-.8.9-1.6,1.3-2.7,1.3-2.2,0-3.7-1.5-3.7-3.6s.2-1.7.9-2.4l8.7-10.2c-1.2-.9-3.2-1.3-4.7-1.3-6.2,0-11,5.2-11,11.7s4.8,11.7,11,11.7,5.9-1.4,7.6-3.2c1.1-.9,1.9-1.8,3.4-1.8,2.2,0,3.9,1.6,3.9,3.8s-.4,1.8-1.1,2.6c-2.7,3.3-7.7,5.9-13.8,5.9-10.8,0-19-8.4-19-19Z"/>
        </g>
        <g>
          <path class="st2" d="M283.9,57c1.2-6.6,6.4-10.6,12.7-10.6s3.5,1.5,3.5,3.5-1.5,3.5-3.5,3.5-4.2,1.2-5.1,3.7h5.1c1.9,0,3.5,1.5,3.5,3.5s-1.5,3.5-3.5,3.5h-5.5v17c0,2.1-1.6,3.7-3.7,3.7s-3.7-1.6-3.7-3.7v-17h-1c-1.9,0-3.5-1.5-3.5-3.5s1.5-3.5,3.5-3.5h1.2Z"/>
          <path class="st2" d="M300.5,49.6c0-2.3,1.9-4.2,4.2-4.2s4.2,1.9,4.2,4.2-1.9,4.2-4.2,4.2-4.2-1.9-4.2-4.2ZM301.1,60.2c0-2.1,1.6-3.7,3.7-3.7s3.7,1.6,3.7,3.7v20.7c0,2.1-1.6,3.7-3.7,3.7s-3.7-1.6-3.7-3.7v-20.7Z"/>
          <path class="st2" d="M312.2,60.2c0-2.1,1.6-3.7,3.7-3.7s3.7,1.6,3.7,3.7v11.3l11.6-13.8c.7-.8,1.5-1.2,2.5-1.2,2,0,3.6,1.4,3.6,3.4s-.3,1.5-.8,2.2l-17.9,21.3c-.7.8-1.5,1.2-2.7,1.2-2.1,0-3.7-1.6-3.7-3.7v-20.7Z"/>
          <path class="st2" d="M335.2,70.5c0-7.9,5.9-14.1,14.2-14.1s7.6,1.8,9.1,3.2c.8.7,1.3,1.8,1.3,2.9s-.3,1.7-1,2.6l-6.8,8.2c-.7.8-1.5,1.2-2.5,1.2-2,0-3.6-1.4-3.6-3.4s.2-1.6.8-2.2l4.6-5.3c-.4-.2-1.3-.3-1.9-.3-3.8,0-6.7,3.2-6.7,7.2s2.9,7.2,6.7,7.2,3.3-.8,4.2-1.5c1.1-.9,1.8-1.7,3.2-1.7,2.1,0,3.7,1.5,3.7,3.6s-.4,1.6-1.1,2.4c-1.8,2.2-5.5,4.1-10,4.1-8.2,0-14.2-6.2-14.2-14.1Z"/>
        </g>
      </g>
      <g>
        <path class="st4" d="M374.6,70.5c0-7.9,5.9-14.1,14.2-14.1s7.6,1.8,9.1,3.2c.8.7,1.3,1.8,1.3,2.9s-.3,1.7-1,2.6l-6.8,8.2c-.7.8-1.5,1.2-2.5,1.2-2,0-3.6-1.4-3.6-3.4s.2-1.6.8-2.2l4.6-5.3c-.4-.2-1.3-.3-1.9-.3-3.8,0-6.7,3.2-6.7,7.2s2.9,7.2,6.7,7.2,3.3-.8,4.2-1.5c1.1-.9,1.8-1.7,3.2-1.7,2.1,0,3.7,1.5,3.7,3.6s-.4,1.6-1.1,2.4c-1.8,2.2-5.5,4.1-10,4.1-8.2,0-14.2-6.2-14.2-14.1Z"/>
        <path class="st4" d="M399.9,70.5c0-7.9,5.6-14.1,13.1-14.1s5.5,1,7.7,2.5v-8.9c0-2.1,1.6-3.7,3.7-3.7s3.7,1.6,3.7,3.7v30.8c0,2.1-1.6,3.7-3.7,3.7s-3.1-1.1-3.6-2.7c-2.2,1.7-4.9,2.7-7.8,2.7-7.5,0-13.1-6.2-13.1-14.1ZM420.7,70.5c0-4.1-2.9-7.2-6.6-7.2s-6.7,3.1-6.7,7.2,2.9,7.2,6.7,7.2,6.6-3,6.6-7.2Z"/>
        <path class="st4" d="M431.8,60.2c0-2.1,1.6-3.7,3.7-3.7s3.7,1.6,3.7,3.7v12.2c0,3.5,2.1,5.3,4.8,5.3s4.8-1.9,4.8-5.3v-12.2c0-2.1,1.6-3.7,3.7-3.7s3.7,1.6,3.7,3.7v11.9c0,7.5-5.4,12.5-12.2,12.5s-12.2-5-12.2-12.5v-11.9Z"/>
      </g>
      <circle class="st4" cx="268" cy="68.1" r="3.9"/>
    </g>
    <g>
      <path class="st7" d="M63.6,56c-1.4,0-2.6,1.1-2.6,2.6s1.1,2.6,2.6,2.6c2,0,3.6,1.6,3.6,3.6s-1.6,3.6-3.6,3.6-3.6-1.6-3.6-3.6-1.1-2.6-2.6-2.6-2.6,1.1-2.6,2.6c0,4.8,3.9,8.8,8.8,8.8s8.8-3.9,8.8-8.8-3.9-8.8-8.8-8.8Z"/>
      <path class="st3" d="M79.3,62.2c-1.4,0-2.6,1.1-2.6,2.6,0,7.3-5.9,13.1-13.1,13.1s-13.1-5.9-13.1-13.1,5.9-13.1,13.1-13.1,2.6-1.1,2.6-2.6-1.1-2.6-2.6-2.6c-10.1,0-18.3,8.2-18.3,18.3s8.2,18.3,18.3,18.3,18.3-8.2,18.3-18.3-1.1-2.6-2.6-2.6Z"/>
      <path class="st6" d="M63.6,36c-15.9,0-28.8,12.9-28.8,28.8s12.9,28.8,28.8,28.8,2.6-1.1,2.6-2.6-1.1-2.6-2.6-2.6c-13,0-23.6-10.6-23.6-23.6s10.6-23.6,23.6-23.6,23.6,10.6,23.6,23.6,1.1,2.6,2.6,2.6,2.6-1.1,2.6-2.6c0-15.9-12.9-28.8-28.8-28.8Z"/>
      <path class="st1" d="M63.6,25.9c-1.4,0-2.6,1.1-2.6,2.6s1.1,2.6,2.6,2.6c18.6,0,33.7,15.1,33.7,33.7s-15.1,33.7-33.7,33.7-33.7-15.1-33.7-33.7-1.1-2.6-2.6-2.6-2.6,1.1-2.6,2.6c0,21.4,17.4,38.8,38.8,38.8s38.8-17.4,38.8-38.8-17.4-38.8-38.8-38.8Z"/>
      <path class="st5" d="M110.4,62.2c-1.4,0-2.6,1.1-2.6,2.6,0,24.4-19.9,44.3-44.3,44.3s-44.3-19.9-44.3-44.3S39.2,20.5,63.6,20.5s2.6-1.1,2.6-2.6-1.1-2.6-2.6-2.6c-27.2,0-49.4,22.2-49.4,49.4s22.2,49.4,49.4,49.4,49.4-22.2,49.4-49.4-1.1-2.6-2.6-2.6Z"/>
    </g>
  </g>
</svg>