<svg width="40" height="47" viewBox="0 0 40 47" fill="none" xmlns="http://www.w3.org/2000/svg">
<path d="M12 11.01C9.64 11.01 8 9.09 8 6.72V5.28999C8 2.91999 9.64 1 12 1C14.36 1 16 2.91999 16 5.28999V6.72C16 9.09 14.36 11.01 12 11.01Z" stroke="#22C55E" stroke-width="2" stroke-miterlimit="10"/>
<path d="M21 45.0098L15 34.0098H8C5.8 34.0098 4 32.2098 4 30.0098V17.0098C4 15.3598 5.35 14.0098 7 14.0098H10L15 20.0098H21C21 20.0098 21.45 24.0098 18 24.0098H12L8 19.0098" stroke="#22C55E" stroke-width="2" stroke-miterlimit="10"/>
<path d="M11 23.0098V28.0098H15.32C16.92 28.0098 18.47 28.4998 19 30.0098L26 45.0098" stroke="#22C55E" stroke-width="2" stroke-miterlimit="10"/>
<path d="M13 37.0098H6C3.25 37.0098 1 34.7598 1 32.0098V19.0098" stroke="#22C55E" stroke-width="2" stroke-miterlimit="10"/>
<path d="M7 37.0098V45.0098" stroke="#22C55E" stroke-width="2" stroke-miterlimit="10"/>
<path d="M18 17.0098L22 10.0098H38L32 21.0098H24" stroke="#22C55E" stroke-width="2" stroke-linejoin="round"/>
<path d="M11 24.0098H40" stroke="#22C55E" stroke-width="2" stroke-linejoin="round"/>
<path d="M2 45.0098H12" stroke="#22C55E" stroke-width="2" stroke-miterlimit="10"/>
<path d="M35 24.0098V46.0098" stroke="#22C55E" stroke-width="2" stroke-miterlimit="10"/>
</svg>
