<svg width="48" height="48" viewBox="0 0 48 48" fill="none" xmlns="http://www.w3.org/2000/svg">
<path d="M29 35.9702V18.3802L36.07 11.6702C37.64 9.9202 37.73 7.2902 36.26 5.4502L28 12.9702C27.36 13.6402 25.99 13.9702 25.06 13.9702H22.88C21.97 13.9702 20.63 13.6302 20 12.9702L11.51 5.5002C10.04 7.3402 10.16 9.9402 11.73 11.6902L19 18.3802V35.9702" stroke="#22C55E" stroke-width="2" stroke-miterlimit="10"/>
<path d="M24 25.9702V35.9702" stroke="#22C55E" stroke-width="2" stroke-miterlimit="10"/>
<path d="M16 47.9702V37.9702H32V47.9702" stroke="#22C55E" stroke-width="2" stroke-miterlimit="10"/>
<path d="M32 47.9702V41.9702H47V47.9702" stroke="#22C55E" stroke-width="2" stroke-miterlimit="10"/>
<path d="M1 47.9702V44.9702H16V47.9702" stroke="#22C55E" stroke-width="2" stroke-miterlimit="10"/>
<path d="M24 9.98C26.4 9.98 28 8.26 28 6.13V4.85001C28 2.73001 26.4 1 24 1C21.6 1 20 2.72001 20 4.85001V6.13C20 8.25 21.6 9.98 24 9.98Z" stroke="#22C55E" stroke-width="2" stroke-miterlimit="10"/>
</svg>
