<svg width="46" height="43" viewBox="0 0 46 43" fill="none" xmlns="http://www.w3.org/2000/svg">
<path d="M19 11.0098V1.00977H45V29.0098H19V22.0098" stroke="#22C55E" stroke-width="2" stroke-miterlimit="10"/>
<path d="M10 11.01C12.29 11.01 14 9.09 14 6.72V5.29C14 2.92 12.29 1 10 1C7.71 1 6 2.92 6 5.29V6.72C6 9.09 7.71 11.01 10 11.01Z" stroke="#22C55E" stroke-width="2" stroke-miterlimit="10"/>
<path d="M15 42.0098V18.0098H21C24.02 18.0098 25 16.2298 25 14.0098H6C2.42 14.0098 1 15.5198 1 20.0098V27.0098C1 29.1598 1.85 31.0098 4 31.0098H5" stroke="#22C55E" stroke-width="2" stroke-miterlimit="10"/>
<path d="M10 28.0098V42.0098" stroke="#22C55E" stroke-width="2" stroke-miterlimit="10"/>
<path d="M5 20.0098V42.0098" stroke="#22C55E" stroke-width="2" stroke-miterlimit="10"/>
<path d="M23 23.0098H28L30 19.0098H35L39 9.00977H42" stroke="#22C55E" stroke-width="2" stroke-miterlimit="10"/>
</svg>
