<svg width="68" height="66" viewBox="0 0 68 66" fill="none" xmlns="http://www.w3.org/2000/svg">
<path d="M63.9918 1.00895H17.5045C15.8549 1.00895 14.5053 2.35842 14.5053 4.00777V41.493C14.5053 43.1424 15.8549 44.4919 17.5045 44.4919H46.4466L56.9138 55.3176C57.8435 56.2922 59.4931 55.6175 59.4931 54.283V44.4919H63.9918C65.6414 44.4919 66.991 43.1424 66.991 41.493V4.00777C66.991 2.35842 65.6414 1.00895 63.9918 1.00895Z" stroke="#505050" stroke-width="2" stroke-linejoin="round"/>
<path d="M41.498 48.99V50.4894C41.498 52.1388 40.1483 53.4883 38.4988 53.4883H21.5534L11.0862 64.314C10.1565 65.2886 8.50691 64.6139 8.50691 63.2794V53.4883H4.00814C2.35858 53.4883 1.00895 52.1388 1.00895 50.4894V20.5012C1.00895 18.8519 2.35858 17.5024 4.00814 17.5024H10.0065" stroke="#505050" stroke-width="2" stroke-linejoin="round"/>
<path d="M39.8784 28.9429C42.4427 27.1287 44.4972 24.4897 44.4972 21.3559V17.8173C44.4972 17.2176 45.9967 15.6882 45.9967 12.9892C45.9967 10.2903 45.3519 9.01578 43.9873 8.07115C42.4127 6.97658 39.9984 6.9016 39.9984 8.37103V9.55555C39.9984 12.8393 37.809 14.9384 35.8595 16.5878C35.8595 16.5878 32.8303 19.0018 31.7206 19.0018H25.0174V33.9959H30.386C33.0403 33.9959 32.4704 36.9948 36.2044 36.9948H50.3756C51.6802 36.9948 53.1948 35.5104 53.1948 34.2059L55.0693 24.0849C55.4892 21.5659 53.5547 19.0018 50.9904 19.0018H47.4963" stroke="#505050" stroke-width="2" stroke-miterlimit="10"/>
</svg>
