<svg width="63" height="71" viewBox="0 0 63 71" fill="none" xmlns="http://www.w3.org/2000/svg">
<path d="M42.6582 15.8767V3.97614C42.6582 2.3398 41.3341 1.00099 39.6827 1.00099H3.9765C2.33997 1.00099 1.00099 2.32493 1.00099 3.97614V24.8022C1.00099 26.4534 2.33998 27.7922 3.99139 27.7922H5.46426V32.2549C5.46426 33.6235 7.1603 34.2632 8.06783 33.2368L14.3908 27.7922H17.3663" stroke="#505050" stroke-width="2" stroke-miterlimit="10"/>
<path d="M23.3173 27.7775H39.6827C41.3192 27.7775 42.6582 26.4386 42.6582 24.8023V21.8272" stroke="#505050" stroke-width="2" stroke-miterlimit="10"/>
<path d="M48.6092 48.6036H23.3173C21.6808 48.6036 20.3418 47.2648 20.3418 45.6284V21.8272C20.3418 20.1909 21.6659 18.8521 23.3173 18.8521H59.0235C60.66 18.8521 61.999 20.176 61.999 21.8272V45.6284C61.999 47.2796 60.66 48.6184 59.0086 48.6184H57.5357V53.0812C57.5357 54.4497 55.8397 55.0894 54.9322 54.063L48.6092 48.6184V48.6036Z" stroke="#505050" stroke-width="2" stroke-miterlimit="10"/>
<path d="M42.6582 45.628V42.6529C42.6582 41.0166 41.3341 39.6777 39.6827 39.6777H23.3173" stroke="#505050" stroke-width="2" stroke-miterlimit="10"/>
<path d="M17.3663 39.6777H3.9765C2.33997 39.6777 1.00099 41.0017 1.00099 42.6529V60.5038C1.00099 62.155 2.33998 63.4938 3.99139 63.4938H5.46426V67.9566C5.46426 69.3251 7.1603 69.9648 8.06783 68.9384L14.3908 63.4938H39.6827C41.3192 63.4938 42.6582 62.155 42.6582 60.5187V51.5932" stroke="#505050" stroke-width="2" stroke-miterlimit="10"/>
</svg>
