<svg width="71" height="62" viewBox="0 0 71 62" fill="none" xmlns="http://www.w3.org/2000/svg">
<path d="M63.9926 36.9952V60.986H1.00896V17.5026H20.5039" stroke="#505050" stroke-width="2" stroke-miterlimit="10"/>
<path d="M23.5031 24.9998V5.50725C23.5031 3.01819 25.5126 1.00896 28.002 1.00896H65.4922C67.9816 1.00896 69.991 3.01819 69.991 5.50725V29.4981C69.991 31.9871 67.9816 33.9964 65.4922 33.9964H51.9957L41.0635 44.9272C40.1188 45.8719 38.4992 45.1971 38.4992 43.8626V33.9814H32.5008" stroke="#505050" stroke-width="2" stroke-miterlimit="10"/>
<path d="M35.5 56.488V52.5745C35.5 48.3911 26.8473 45.992 23.5031 45.992C20.159 45.992 11.5062 48.3911 11.5062 52.5745V56.488" stroke="#505050" stroke-width="2" stroke-miterlimit="10"/>
<path d="M23.5031 27.9987C20.204 27.9987 17.5047 30.6677 17.5047 33.9664V35.5258C17.5047 38.8245 20.204 41.4935 23.5031 41.4935C26.8023 41.4935 29.5016 38.8245 29.5016 35.5258V33.9664C29.5016 30.6677 26.8023 27.9987 23.5031 27.9987Z" stroke="#505050" stroke-width="2" stroke-miterlimit="10"/>
<path d="M34.0004 17.5026H59.4938" stroke="#505050" stroke-width="2" stroke-miterlimit="10"/>
<path d="M34.0004 11.505H59.4938" stroke="#505050" stroke-width="2" stroke-miterlimit="10"/>
<path d="M34.0004 23.5002H47.4969" stroke="#505050" stroke-width="2" stroke-miterlimit="10"/>
<path d="M20.5039 8.50621H1.00896V17.5028" stroke="#505050" stroke-width="2" stroke-miterlimit="10"/>
<path d="M5.50779 13.0042H8.50702" stroke="#505050" stroke-width="2" stroke-miterlimit="10"/>
<path d="M11.5062 13.0042H14.5055" stroke="#505050" stroke-width="2" stroke-miterlimit="10"/>
</svg>
