<svg width="71" height="62" viewBox="0 0 71 62" fill="none" xmlns="http://www.w3.org/2000/svg">
<path d="M65.4922 36.995V51.9893H5.50778V16.003C5.50778 14.3536 6.85743 13.0042 8.507 13.0042H19.0043" stroke="#505050" stroke-width="2" stroke-miterlimit="10"/>
<path d="M1.00896 51.9896H69.991V54.9884C69.991 58.3021 67.3067 60.9861 63.9926 60.9861H7.0074C3.69326 60.9861 1.00896 58.3021 1.00896 54.9884V51.9896Z" stroke="#505050" stroke-width="2" stroke-miterlimit="10"/>
<path d="M32.5007 56.488H39.9988" stroke="#505050" stroke-width="2" stroke-miterlimit="10"/>
<path d="M45.9973 1.00896C32.7407 1.00896 22.0035 9.40576 22.0035 19.7518C22.0035 23.8452 23.6981 27.6088 26.5473 30.6976C26.1424 33.8764 25.3476 37.2201 24.103 40.3389C23.6381 41.4935 24.6578 42.708 25.8725 42.4082C31.0611 41.1486 34.9302 39.3043 37.7644 37.3401C40.3288 38.0748 43.103 38.4947 45.9973 38.4947C59.2538 38.4947 69.991 30.0979 69.991 19.7518C69.991 9.40576 59.2538 1.00896 45.9973 1.00896Z" stroke="#505050" stroke-width="2" stroke-miterlimit="10"/>
</svg>
