<svg width="58" height="71" viewBox="0 0 58 71" fill="none" xmlns="http://www.w3.org/2000/svg">
<path d="M20.9967 63.9915H23.9662C26.5158 63.9915 28.5855 64.7413 30.3252 66.3759C32.3199 68.2503 33.0997 70.0048 35.9943 69.9898C38.2589 69.9898 42.2483 69.9898 47.9924 69.9898C49.5221 69.9898 50.032 68.4153 49.4621 66.9907C49.0122 65.881 47.6774 63.3917 46.4626 62.4919" stroke="#505050" stroke-width="2" stroke-miterlimit="10"/>
<path d="M22.4964 45.9966H10.4983C9.67004 45.9966 8.99858 46.668 8.99858 47.4962V57.9933C8.99858 58.8215 9.67004 59.4928 10.4983 59.4928H22.4964C23.3247 59.4928 23.9962 58.8215 23.9962 57.9933V47.4962C23.9962 46.668 23.3247 45.9966 22.4964 45.9966Z" stroke="#505050" stroke-width="2" stroke-miterlimit="10"/>
<path d="M20.9967 45.9962V41.4975C20.9967 40.6727 20.3218 39.9979 19.4969 39.9979H13.4979C12.673 39.9979 11.9981 40.6727 11.9981 41.4975V45.9962" stroke="#505050" stroke-width="2" stroke-miterlimit="10"/>
<path d="M20.9967 59.4928V63.9916C20.9967 64.8163 20.3218 65.4912 19.4969 65.4912H13.4979C12.673 65.4912 11.9981 64.8163 11.9981 63.9916V59.4928" stroke="#505050" stroke-width="2" stroke-miterlimit="10"/>
<path d="M11.9981 41.4977H0" stroke="#505050" stroke-width="2" stroke-miterlimit="10"/>
<path d="M11.9981 63.9913H0" stroke="#505050" stroke-width="2" stroke-miterlimit="10"/>
<path d="M10.4983 1.00906H47.9924C50.482 1.00906 52.4917 3.0185 52.4917 5.5078V22.0032C52.4917 24.4925 50.482 26.5019 47.9924 26.5019H26.5458L19.077 34.3297C18.1471 35.3045 16.4974 34.6296 16.4974 33.295V26.5019H10.4983C8.00872 26.5019 5.99904 24.4925 5.99904 22.0032V5.5078C5.99904 3.0185 8.00872 1.00906 10.4983 1.00906Z" stroke="#505050" stroke-width="2" stroke-linejoin="round"/>
<path d="M16.4974 10.0064H41.9933" stroke="#505050" stroke-width="2" stroke-miterlimit="10"/>
<path d="M16.4974 16.0051H29.9952" stroke="#505050" stroke-width="2" stroke-miterlimit="10"/>
<path d="M41.9933 62.4919H55.4912C56.1211 62.4919 56.991 61.1423 56.991 59.4927C56.991 57.8432 56.3311 56.4936 55.4912 56.4936C56.2711 56.4936 56.991 55.1439 56.991 53.4944C56.991 51.8449 56.2711 50.4953 55.4912 50.4953C56.2711 50.4953 56.991 49.1456 56.991 47.4961C56.991 45.8466 56.2711 44.4969 55.4912 44.4969H53.9914C54.9663 44.4969 55.4912 43.1473 55.4912 41.4978C55.4912 39.8482 54.9663 38.4986 53.9914 38.4986H32.9648C29.5753 38.4986 26.6058 41.4978 23.9662 41.4978H20.9967" stroke="#505050" stroke-width="2" stroke-miterlimit="10"/>
<path d="M55.4912 50.495H53.9914" stroke="#505050" stroke-width="2" stroke-miterlimit="10"/>
<path d="M55.4912 56.4937H53.9914" stroke="#505050" stroke-width="2" stroke-miterlimit="10"/>
<path d="M53.9914 44.4968H52.4917" stroke="#505050" stroke-width="2" stroke-miterlimit="10"/>
</svg>
